<svg xmlns="http://www.w3.org/2000/svg" viewBox="0 -28 1053 1053" width="512" height="512">
  <rect x="0" y="-28" width="1053" height="1053" rx="160" fill="#ffffff"/>
  <g>
    <path d="M 996.78 743.25 L 996.50 754.50 L 795.00 754.67 C684.17,754.77 592.94,754.62 592.25,754.34 C591.29,753.95 591.00,746.31 591.00,720.92 L 591.00 688.00 L 553.93 688.00 C530.30,688.00 516.17,687.62 514.93,686.96 C513.09,685.98 513.00,684.57 513.00,656.47 L 513.00 627.02 L 457.77 626.76 L 402.53 626.50 L 401.64 622.50 C400.39,616.91 400.44,608.53 401.76,601.79 C403.26,594.13 401.55,521.38 398.00,442.50 C396.97,419.60 394.05,328.84 394.02,318.67 C394.00,313.55 394.35,312.49 396.92,309.92 C402.54,304.30 413.05,306.68 415.88,314.21 C416.35,315.47 417.03,327.98 417.39,342.00 C417.75,356.02 418.49,375.15 419.02,384.50 C420.36,408.03 422.13,482.13 422.87,546.00 L 423.50 599.50 L 479.74 599.76 L 535.97 600.02 L 536.24 632.26 L 536.50 664.50 L 613.50 665.50 L 614.03 732.00 L 997.07 732.00 ZM 349.26 620.04 C346.54,623.08 345.67,623.42 339.88,623.71 C333.03,624.06 328.90,622.56 327.03,619.05 C326.39,617.86 326.00,606.01 326.00,588.09 L 326.00 559.04 L 322.25 557.15 C316.96,554.49 297.80,550.57 284.74,549.48 L 276.97 548.83 L 275.34 552.66 C273.30,557.49 272.90,559.14 267.94,583.42 C265.65,594.61 262.47,606.88 260.68,611.42 L 257.50 619.50 L 252.50 619.14 C246.99,618.75 243.45,617.26 240.65,614.17 C238.86,612.19 238.86,611.98 240.80,606.82 C243.67,599.12 247.05,584.26 251.09,561.50 C251.67,558.20 252.53,553.47 253.00,551.00 C253.47,548.53 254.37,543.58 255.00,540.00 C255.63,536.42 256.53,531.47 257.00,529.00 C257.47,526.53 258.37,521.58 259.00,518.00 C259.63,514.42 260.55,509.48 261.03,507.00 C261.51,504.52 262.21,500.48 262.57,498.00 C262.94,495.52 263.35,492.83 263.50,492.00 C263.65,491.17 264.06,488.48 264.43,486.00 C264.79,483.52 265.49,479.48 265.97,477.00 C266.45,474.52 267.37,469.58 268.00,466.00 C268.63,462.42 269.53,457.48 270.00,455.00 C270.47,452.52 271.33,447.80 271.91,444.50 C272.99,438.45 275.50,425.26 278.41,410.50 C288.59,358.66 300.32,321.96 309.05,314.61 C310.99,312.98 313.34,312.01 315.33,312.02 C318.69,312.05 325.83,313.49 326.65,314.32 C326.92,314.59 327.78,322.39 328.55,331.65 C329.33,340.92 330.42,352.44 330.98,357.25 C334.08,383.91 334.75,389.48 337.43,410.50 C338.27,417.10 339.44,426.77 340.03,432.00 C340.62,437.23 341.52,445.10 342.03,449.50 C342.55,453.90 343.21,465.60 343.51,475.50 C344.28,501.39 345.17,514.40 348.03,541.50 C350.40,563.92 351.12,574.51 351.67,595.09 L 352.25 616.68 ZM 516.93 343.37 C515.57,345.09 513.93,345.98 512.18,345.94 C510.41,345.90 497.40,337.79 474.00,322.15 C295.60,202.94 288.08,198.00 284.70,198.00 C282.31,198.00 279.24,199.46 273.93,203.13 C269.84,205.94 259.52,213.00 251.00,218.80 C242.48,224.60 230.10,233.03 223.50,237.53 C208.03,248.08 157.58,281.69 144.00,290.49 C123.48,303.79 120.33,305.81 105.39,315.24 C86.86,326.93 70.34,336.52 63.46,339.56 C58.34,341.83 58.25,341.83 55.19,339.97 C51.95,338.00 49.00,333.38 49.00,330.27 C49.00,326.98 51.79,324.32 68.25,311.87 C77.19,305.12 90.35,295.14 97.50,289.70 C104.65,284.26 119.05,273.34 129.50,265.42 C139.95,257.50 156.60,244.86 166.50,237.33 C184.40,223.72 206.95,206.62 237.50,183.49 C266.41,161.60 275.45,154.71 279.32,151.61 C281.17,150.13 282.52,148.98 284.07,148.55 C288.81,147.21 295.44,152.53 323.93,175.42 C324.61,175.97 325.30,176.52 326.00,177.09 C382.31,222.32 418.44,251.43 435.00,264.91 C444.90,272.97 464.31,288.68 474.02,296.50 C478.81,300.35 487.39,307.31 493.11,311.96 C498.82,316.62 505.98,322.39 509.00,324.80 C518.83,332.63 521.13,338.02 516.93,343.37 ZM 170.50 629.63 C165.50,631.92 162.97,632.39 154.53,632.62 C142.98,632.93 137.22,632.08 130.38,629.05 C122.94,625.76 120.99,623.48 121.03,618.08 C121.07,613.19 122.20,611.02 125.68,609.16 C129.16,607.31 132.48,607.76 143.63,611.62 C154.07,615.22 154.12,615.23 158.47,613.56 C169.28,609.44 178.07,593.36 183.02,568.65 C186.52,551.22 185.15,534.94 178.27,512.00 C174.24,498.57 170.86,490.68 156.88,462.19 C137.03,421.72 134.05,414.55 129.62,396.50 C125.69,380.44 124.51,367.43 126.02,356.63 C128.40,339.65 133.17,328.90 142.86,318.72 C150.89,310.28 156.94,307.15 167.15,306.14 C178.19,305.04 183.56,306.57 190.09,312.68 C196.63,318.80 196.89,320.08 192.58,325.33 L 189.03 329.67 L 183.46 328.91 C180.40,328.50 176.82,327.46 175.51,326.60 C173.38,325.20 172.70,325.20 168.85,326.55 C161.73,329.07 155.62,336.29 151.77,346.77 C148.59,355.44 148.84,375.64 152.32,390.00 C156.56,407.53 160.34,416.58 179.35,454.79 C198.26,492.82 201.78,501.65 206.16,522.00 C208.07,530.88 208.42,535.58 208.45,552.50 C208.48,575.51 207.19,582.14 199.50,598.63 C191.94,614.83 183.79,623.54 170.50,629.63 ZM 303.50 534.34 C311.50,534.98 318.82,534.99 322.01,534.35 L 325.28 533.69 L 324.65 524.60 C324.03,515.55 323.13,506.07 321.00,486.00 C319.06,467.70 318.03,456.99 316.46,438.50 C315.61,428.60 314.49,415.55 313.96,409.50 C313.43,403.45 312.71,392.54 312.35,385.25 C311.99,377.96 311.38,372.00 310.98,372.00 C308.52,372.00 297.28,418.46 291.39,453.00 C290.96,455.48 290.57,457.73 290.51,458.00 C290.38,458.58 288.81,467.78 288.46,470.00 C287.34,477.05 285.02,491.84 282.98,505.00 C282.34,509.12 281.52,516.41 281.15,521.19 L 280.47 529.87 L 284.49 530.90 C290.52,532.45 299.01,533.98 303.50,534.34 Z" fill="rgb(79,40,112)"/>
    <path d="M 846.35 706.26 L 840.20 710.00 L 827.25 710.00 C825.87,710.00 824.58,710.03 823.38,710.06 C819.15,710.15 816.04,710.22 813.76,708.89 C807.49,705.20 807.49,690.83 807.50,636.91 C807.50,631.37 807.50,625.41 807.49,619.00 C807.44,568.35 807.02,538.28 806.24,530.00 C805.58,523.12 804.75,512.50 804.38,506.39 L 803.71 495.29 L 807.29 491.39 L 810.86 487.50 L 818.68 487.63 C836.77,487.92 852.93,498.12 865.99,517.50 C873.62,528.81 876.70,535.72 881.17,551.50 C883.37,559.28 883.43,560.59 883.18,599.00 C883.05,620.72 882.45,642.10 881.85,646.50 C879.93,660.71 876.10,672.89 870.76,681.81 C866.35,689.18 853.87,701.67 846.35,706.26 ZM 989.23 709.25 C986.54,712.30 976.44,710.81 973.41,706.90 C972.81,706.13 971.77,699.20 971.09,691.50 C970.00,679.07 969.39,674.17 967.46,662.35 C967.10,660.17 966.27,659.04 964.72,658.65 C962.50,658.10 935.46,654.00 934.06,654.00 C933.65,654.00 932.74,657.26 932.04,661.25 C931.34,665.24 930.40,670.08 929.96,672.00 C929.52,673.92 928.86,677.97 928.50,681.00 C926.33,699.10 922.74,708.24 917.38,709.27 C913.49,710.01 908.06,708.00 905.82,704.97 C903.96,702.47 903.98,702.29 907.84,686.97 C911.52,672.34 913.56,663.67 918.96,639.75 C920.10,634.70 923.65,617.75 924.46,613.50 C924.78,611.85 925.25,609.38 925.52,608.00 C925.79,606.62 926.44,603.03 926.96,600.00 C927.49,596.97 928.36,592.03 928.91,589.00 C929.45,585.97 931.05,576.53 932.46,568.00 C933.87,559.47 935.44,550.03 935.94,547.00 C937.37,538.43 938.83,525.73 940.08,511.00 C941.23,497.39 942.17,491.86 944.21,486.66 L 945.32 483.82 L 954.56 484.16 C960.14,484.36 963.30,484.37 965.19,485.92 C967.81,488.06 968.02,493.14 968.87,505.76 C970.19,525.53 970.70,530.19 976.07,571.50 C978.03,586.58 980.14,608.40 981.47,627.50 C982.23,638.50 983.33,649.53 983.91,652.00 C984.49,654.47 985.71,661.22 986.62,667.00 C987.53,672.78 988.64,679.53 989.10,682.00 C992.38,699.89 992.41,705.65 989.23,709.25 ZM 651.08 708.31 C646.25,712.67 644.59,712.84 640.25,709.42 L 637.00 706.86 L 637.00 696.18 C637.01,682.58 634.91,659.40 631.92,640.00 C626.54,605.02 612.65,544.25 601.53,507.00 C599.64,500.67 598.07,494.30 598.05,492.84 C597.99,489.59 603.01,485.00 606.62,485.00 C613.83,485.00 620.33,499.37 628.12,532.50 C632.89,552.79 635.23,565.11 638.92,589.50 C643.02,616.61 644.05,623.57 644.45,626.82 C644.69,628.84 645.39,634.33 645.99,639.00 C647.42,650.19 648.98,663.25 649.02,664.50 C649.12,667.03 651.00,661.76 651.91,656.43 C652.46,653.17 653.37,648.03 653.91,645.00 C655.50,636.24 659.02,616.04 660.09,609.50 C660.63,606.20 661.47,601.03 661.97,598.00 C662.46,594.97 663.11,591.15 663.41,589.50 C664.46,583.77 666.98,567.47 667.52,563.00 C667.81,560.53 668.26,557.83 668.50,557.00 C668.74,556.17 669.17,553.70 669.44,551.50 C670.14,545.80 673.06,526.23 675.11,513.50 C675.64,510.20 676.54,504.58 677.10,501.00 C677.66,497.42 678.66,491.35 679.31,487.50 L 680.50 480.50 L 685.58 480.20 C689.46,479.98 691.24,480.37 693.08,481.87 C695.36,483.73 695.49,484.36 695.25,493.17 C694.92,505.85 692.99,515.41 685.02,544.00 C677.32,571.59 677.10,572.98 673.96,613.50 C673.36,621.20 672.47,630.42 671.98,634.00 C671.48,637.58 670.80,643.42 670.46,647.00 C670.11,650.58 669.22,657.10 668.46,661.50 C663.92,687.99 659.04,701.12 651.08,708.31 ZM 829.63 660.25 C830.15,685.27 830.03,691.84 832.32,692.84 C833.13,693.19 834.23,692.85 835.76,692.39 C836.21,692.25 836.69,692.10 837.20,691.96 C843.88,690.11 850.53,683.83 854.37,675.76 C859.90,664.12 861.22,659.34 865.08,637.00 C866.72,627.44 866.74,581.94 865.10,569.50 C861.15,539.49 855.87,523.63 846.27,512.96 C841.57,507.73 833.59,503.03 829.39,503.01 C827.53,503.00 827.20,503.75 826.66,509.25 C824.55,530.56 825.04,568.60 828.01,613.50 C828.52,621.20 829.25,642.24 829.63,660.25 ZM 772.75 703.81 C768.68,706.58 767.90,706.73 754.50,707.23 C728.87,708.20 717.83,705.41 717.20,697.83 C716.70,691.89 719.59,690.00 729.15,690.00 C736.12,690.00 737.05,689.77 738.09,687.82 C739.33,685.52 738.98,673.44 737.02,650.50 C734.69,623.21 733.83,601.00 733.33,554.94 L 732.80 506.39 L 727.01 506.81 C722.12,507.16 720.90,506.90 719.11,505.11 C715.87,501.87 716.28,496.78 720.03,493.63 C724.94,489.50 740.37,486.00 753.67,486.00 C763.41,486.00 764.63,486.39 766.54,490.07 C768.78,494.42 768.34,497.81 765.11,501.04 C762.47,503.68 761.78,503.88 757.24,503.34 C753.01,502.84 751.92,503.08 750.12,504.88 C748.18,506.82 748.00,508.07 748.02,519.75 C748.05,541.32 751.68,611.05 754.09,636.50 C754.72,643.10 755.52,657.28 755.87,668.00 L 756.50 687.50 L 762.50 687.76 C771.27,688.13 772.85,688.70 775.03,692.28 C778.23,697.53 777.65,700.46 772.75,703.81 ZM 955.00 646.02 C958.58,646.40 962.06,646.78 962.75,646.86 C963.61,646.96 963.99,645.37 963.98,641.75 C963.95,634.08 961.10,587.00 960.04,576.50 C959.53,571.55 958.63,562.78 958.03,557.00 C957.43,551.22 956.51,541.82 956.00,536.11 C955.48,530.40 954.87,525.54 954.65,525.31 C954.42,525.09 953.89,527.07 953.46,529.70 C953.03,532.34 952.56,534.95 952.43,535.50 C952.30,536.05 951.72,539.20 951.14,542.50 C945.11,577.02 940.28,605.43 939.07,613.50 C938.57,616.80 937.43,624.41 936.52,630.40 C935.17,639.35 935.11,641.45 936.19,642.13 C938.02,643.27 947.25,645.18 955.00,646.02 Z" fill="rgb(140,92,157)"/>
  </g>
</svg>
